<?xml version="1.0" encoding="UTF-8"?>
<svg id="Calque_1" data-name="Calque 1" xmlns="http://www.w3.org/2000/svg" xmlns:xlink="http://www.w3.org/1999/xlink" viewBox="0 0 2267.72 799.99">
  <defs>
    <style>
      .cls-1, .cls-2 {
        fill: #3a4f7a;
      }

      .cls-3 {
        fill: url(#Dégradé_sans_nom_17);
      }

      .cls-2 {
        opacity: .8;
      }
    </style>
    <linearGradient id="Dégradé_sans_nom_17" data-name="Dégradé sans nom 17" x1="143.63" y1="161.02" x2="728.82" y2="706.5" gradientUnits="userSpaceOnUse">
      <stop offset="0" stop-color="#dba39a"/>
      <stop offset="1" stop-color="#ce7777"/>
    </linearGradient>
  </defs>
  <path class="cls-3" d="M799.71,384.53c-.13-3.42-.3-6.83-.52-10.23-.22-3.4-.47-6.78-.77-10.16-.6-6.75-1.37-13.45-2.3-20.09-.7-4.99-1.49-9.94-2.37-14.87-.59-3.28-1.21-6.55-1.88-9.81-.67-3.25-1.37-6.5-2.12-9.72-.74-3.23-1.53-6.44-2.35-9.63s-1.68-6.37-2.58-9.54c-2.7-9.49-5.73-18.84-9.1-28.03-.56-1.53-1.13-3.06-1.71-4.58-3.47-9.14-7.27-18.11-11.38-26.92-.68-1.47-1.38-2.93-2.08-4.39-1.4-2.91-2.84-5.81-4.32-8.68-.74-1.44-1.48-2.87-2.23-4.3-9.79-18.55-20.99-36.24-33.47-52.93-.96-1.28-1.93-2.56-2.9-3.83-3.9-5.09-7.92-10.08-12.05-14.96-1.03-1.22-2.07-2.44-3.12-3.65-9.43-10.89-19.44-21.26-29.98-31.07-1.17-1.09-2.35-2.17-3.53-3.25-2.37-2.15-4.76-4.28-7.18-6.37-1.21-1.05-2.43-2.09-3.65-3.12-22-18.6-46.04-34.87-71.73-48.43-1.43-.75-2.86-1.5-4.3-2.23-24.44-12.52-50.33-22.59-77.35-29.9-1.59-.43-3.18-.85-4.78-1.26-4.79-1.23-9.62-2.38-14.48-3.44-1.62-.35-3.24-.7-4.87-1.03-3.25-.67-6.52-1.29-9.81-1.88-3.28-.59-6.58-1.13-9.89-1.64-8.28-1.26-16.64-2.28-25.07-3.02-3.37-.3-6.76-.56-10.16-.77-5.1-.32-10.22-.55-15.36-.68-3.43-.09-6.87-.13-10.32-.13s-6.89,.04-10.32,.13c-5.15,.13-10.27,.36-15.36,.68-3.4,.22-6.78,.47-10.16,.77-8.43,.75-16.79,1.76-25.07,3.02-3.31,.51-6.61,1.05-9.89,1.64-3.28,.59-6.55,1.21-9.81,1.88-1.63,.33-3.25,.68-4.87,1.03-4.86,1.06-9.69,2.2-14.48,3.44-1.6,.41-3.19,.83-4.78,1.26-27.03,7.31-52.92,17.39-77.35,29.9-1.44,.74-2.87,1.48-4.3,2.23-25.69,13.55-49.73,29.82-71.73,48.43-1.22,1.03-2.44,2.07-3.65,3.12-2.42,2.1-4.81,4.22-7.18,6.37-1.18,1.08-2.36,2.16-3.53,3.25-10.54,9.81-20.55,20.18-29.98,31.07-1.05,1.21-2.09,2.43-3.12,3.65-4.13,4.89-8.15,9.88-12.05,14.96-.97,1.27-1.94,2.55-2.9,3.83-12.48,16.68-23.68,34.38-33.47,52.93-.75,1.43-1.5,2.86-2.23,4.3-1.47,2.87-2.91,5.77-4.32,8.68-.7,1.46-1.4,2.92-2.08,4.39-4.11,8.8-7.91,17.78-11.38,26.92-.58,1.52-1.15,3.05-1.71,4.58-3.36,9.19-6.4,18.54-9.1,28.03-.9,3.16-1.76,6.34-2.58,9.54s-1.61,6.41-2.35,9.63c-.74,3.23-1.45,6.47-2.12,9.72-.67,3.25-1.29,6.52-1.88,9.81-.88,4.92-1.67,9.88-2.37,14.87-.93,6.65-1.7,13.35-2.3,20.09-.3,3.37-.56,6.76-.77,10.16-.22,3.4-.39,6.81-.52,10.23-.2,5.13-.29,10.28-.29,15.46,0,3.45,.04,6.89,.13,10.32,.13,5.15,.36,10.27,.68,15.36,.22,3.4,.47,6.78,.77,10.16,.75,8.43,1.76,16.79,3.02,25.07,.51,3.31,1.05,6.61,1.64,9.89,.59,3.28,1.21,6.55,1.88,9.81,.33,1.63,.68,3.25,1.03,4.87,1.06,4.86,2.2,9.69,3.44,14.48,.41,1.6,.83,3.19,1.26,4.78,7.31,27.03,17.39,52.92,29.9,77.35,.74,1.44,1.48,2.87,2.23,4.3,13.55,25.69,29.82,49.73,48.43,71.73,1.03,1.22,2.07,2.44,3.12,3.65,12.57,14.51,26.17,28.12,40.69,40.69,1.21,1.05,2.43,2.09,3.65,3.12,22,18.6,46.04,34.87,71.73,48.43,1.43,.75,2.86,1.5,4.3,2.23,24.43,12.52,50.33,22.59,77.35,29.9,1.59,.43,3.18,.85,4.78,1.26,4.79,1.23,9.62,2.38,14.48,3.44,1.62,.35,3.24,.7,4.87,1.03,3.25,.67,6.52,1.29,9.81,1.88,3.28,.59,6.58,1.13,9.89,1.64,8.28,1.26,16.64,2.28,25.07,3.02,3.37,.3,6.76,.56,10.16,.77,5.1,.32,10.22,.55,15.36,.68,3.43,.09,6.87,.13,10.32,.13s6.89-.04,10.32-.13c5.15-.13,10.27-.36,15.36-.68,3.4-.22,6.78-.47,10.16-.77,8.43-.75,16.79-1.76,25.07-3.02,3.31-.51,6.61-1.05,9.89-1.64,3.28-.59,6.55-1.21,9.81-1.88,1.63-.33,3.25-.68,4.87-1.03,4.86-1.06,9.69-2.2,14.48-3.44,1.6-.41,3.19-.83,4.78-1.26,27.03-7.31,52.92-17.39,77.35-29.9,1.44-.74,2.87-1.48,4.3-2.23,4.62-2.44,9.18-4.96,13.69-7.57l185.7,49.76c6.32,1.69,12.1-4.09,10.4-10.4l-49.76-185.7c2.61-4.51,5.14-9.07,7.57-13.69,.75-1.43,1.5-2.86,2.23-4.3,12.52-24.43,22.59-50.33,29.9-77.35,.43-1.59,.85-3.18,1.26-4.78,1.23-4.79,2.38-9.62,3.44-14.48,.35-1.62,.7-3.24,1.03-4.87,.67-3.25,1.29-6.52,1.88-9.81,.59-3.28,1.13-6.58,1.64-9.89,1.26-8.28,2.28-16.64,3.02-25.07,.3-3.37,.56-6.76,.77-10.16,.32-5.1,.55-10.22,.68-15.36,.09-3.43,.13-6.87,.13-10.32,0-5.18-.1-10.33-.29-15.46Zm-124.46,310.83c-6.22,3.11-13.17,4.76-20.11,4.76-17.17,0-32.6-9.53-40.27-24.88l-30.08-60.16h-57.16c-31.14,18.55-65.96,30.05-102.48,33.68l-13.24,26.49c-7.67,15.35-23.1,24.88-40.27,24.88-6.93,0-13.88-1.65-20.11-4.76-20.58-10.29-29.83-34.33-22.21-55.46-38.68-11.34-74.2-32.02-103.8-60.89-19.37,12.89-39.59,24.58-60.6,35.02-6.2,3.08-13.12,4.71-20.01,4.71-17.21,0-32.66-9.57-40.32-24.98-5.35-10.76-6.19-22.97-2.36-34.36,3.83-11.39,11.87-20.61,22.63-25.96,16.77-8.33,32.91-17.63,48.42-27.81-15.24-32.65-23.28-68.52-23.28-105.62,0-56.29,18.48-109.74,52.57-153.43h-57.69c-24.81,0-45-20.19-45-45s20.19-45,45-45h125.08v-11.69c0-24.81,20.19-45,45-45s45,20.19,45,45v8.31c13.12-2.1,26.49-3.19,40.04-3.19,66.78,0,129.56,26,176.78,73.22,47.22,47.22,73.22,110,73.22,176.78,0,35.54-7.37,69.96-21.38,101.49l23.91,47.83c.22,.42,.44,.85,.65,1.29l42.19,84.38c11.1,22.19,2.07,49.28-20.12,60.37Z"/>
  <path class="cls-1" d="M655.14,680.12c-9.17,0-18-5.06-22.38-13.83l-35.61-71.22h-167.52l-35.61,71.22c-6.18,12.35-21.19,17.36-33.54,11.18-12.35-6.17-17.36-21.19-11.18-33.54l42.28-84.56c.15-.32,.31-.63,.47-.93l98.99-197.98c4.23-8.47,12.89-13.82,22.36-13.82s18.13,5.35,22.36,13.82l98.98,197.96c.17,.32,.33,.64,.49,.97l42.27,84.54c6.17,12.35,1.17,27.37-11.18,33.54-3.59,1.79-7.4,2.64-11.16,2.65Zm-200.51-135.05h117.52l-58.76-117.52-58.76,117.52Zm-309.72,53.66c-9.19,0-18.04-5.09-22.41-13.88-6.15-12.36-1.1-27.37,11.26-33.51,57.34-28.5,107.75-67.75,148.99-114.74-25.81-34.52-47.3-71.97-64.18-111.92-5.37-12.72,.58-27.38,13.3-32.76,12.72-5.37,27.38,.58,32.76,13.3,13.54,32.05,30.35,62.32,50.27,90.56,35.66-50.6,61.69-107.99,75.92-169.21H144.88c-13.81,0-25-11.19-25-25s11.19-25,25-25h145.08v-31.69c0-13.81,11.19-25,25-25s25,11.19,25,25v31.69h80.86c.29,0,.59,0,.88,0h63.34c13.81,0,25,11.19,25,25s-11.19,25-25,25h-43.03c-16.07,76.72-48.87,148.26-94.96,209.99,5.06,5.75,10.26,11.4,15.61,16.94,9.59,9.93,9.31,25.76-.62,35.35-9.93,9.59-25.76,9.31-35.35-.62-4-4.14-7.92-8.34-11.77-12.59-44.45,49.14-98.15,90.29-158.9,120.48-3.57,1.78-7.37,2.62-11.11,2.62Z"/>
  <g>
    <path class="cls-1" d="M936.99,313.77c-.42-.42-1.17-.63-2.25-.63h-27.18c-3.24,0-4.86-1.62-4.86-4.86v-21.42c0-3.24,1.62-4.86,4.86-4.86h94.32c1.68,0,2.91,.39,3.69,1.17,.78,.78,1.17,2.01,1.17,3.69v21.42c0,1.68-.39,2.91-1.17,3.69s-2.01,1.17-3.69,1.17h-27.18c-1.08,0-1.83,.21-2.25,.63s-.63,1.17-.63,2.25v87.12c0,1.68-.39,2.91-1.17,3.69-.78,.78-2.01,1.17-3.69,1.17h-24.48c-1.68,0-2.91-.39-3.69-1.17-.78-.78-1.17-2.01-1.17-3.69v-87.12c0-1.08-.21-1.83-.63-2.25Z"/>
    <path class="cls-1" d="M1023.21,283.17c.78-.78,2.01-1.17,3.69-1.17h45.36c18,0,31.62,3.51,40.86,10.53,9.24,7.02,13.86,17.49,13.86,31.41,0,8.52-1.86,15.81-5.58,21.87-3.72,6.06-8.94,10.89-15.66,14.49l27.54,41.94c.72,1.08,1.08,2.1,1.08,3.06,0,.84-.36,1.5-1.08,1.98-.72,.48-1.74,.72-3.06,.72h-27c-2.4,0-4.29-.42-5.67-1.26-1.38-.84-2.73-2.28-4.05-4.32l-19.44-31.86c-.6-.96-1.23-1.62-1.89-1.98-.66-.36-1.59-.54-2.79-.54h-10.26c-1.2,0-1.98,.18-2.34,.54-.36,.36-.54,1.14-.54,2.34v32.22c0,1.68-.39,2.91-1.17,3.69s-2.07,1.17-3.87,1.17h-24.3c-1.68,0-2.91-.39-3.69-1.17-.78-.78-1.17-2.01-1.17-3.69v-116.28c0-1.68,.39-2.91,1.17-3.69Zm63.36,53.1c3.54-2.34,5.31-5.97,5.31-10.89s-1.77-8.43-5.31-10.53c-3.54-2.1-8.97-3.15-16.29-3.15h-11.16c-1.2,0-1.98,.21-2.34,.63-.36,.42-.54,1.17-.54,2.25v22.32c0,1.08,.18,1.83,.54,2.25,.36,.42,1.14,.63,2.34,.63h11.16c7.32,0,12.75-1.17,16.29-3.51Z"/>
    <path class="cls-1" d="M1197.18,281.19c1.44-1.38,3.12-2.07,5.04-2.07,1.8,0,3.42,.69,4.86,2.07,1.44,1.38,3.06,3.81,4.86,7.29l57.06,113.58c.72,1.2,1.08,2.28,1.08,3.24,0,1.8-1.38,2.7-4.14,2.7h-25.56c-2.4,0-4.08-.3-5.04-.9-.96-.6-1.86-1.86-2.7-3.78l-6.3-13.14c-.48-.96-.93-1.59-1.35-1.89-.42-.3-1.11-.45-2.07-.45h-42.66c-.96,0-1.65,.15-2.07,.45-.42,.3-.87,.93-1.35,1.89l-6.12,13.14c-.84,1.92-1.77,3.18-2.79,3.78-1.02,.6-2.61,.9-4.77,.9h-24.66c-2.76,0-4.14-.9-4.14-2.7,0-1.08,.3-2.16,.9-3.24l57.06-113.58c1.8-3.48,3.42-5.91,4.86-7.29Zm16.02,78.39c0-.48-.18-.96-.54-1.44l-11.16-23.58-10.98,23.58c-.36,.48-.54,.96-.54,1.44,0,.84,.66,1.26,1.98,1.26h19.26c1.32,0,1.98-.42,1.98-1.26Z"/>
    <path class="cls-1" d="M1286.28,279.48c1.2,0,2.55,.48,4.05,1.44,1.5,.96,3.45,2.52,5.85,4.68l64.08,57.42v-56.16c0-1.68,.39-2.91,1.17-3.69s2.01-1.17,3.69-1.17h24.48c3.24,0,4.86,1.62,4.86,4.86v116.28c0,4.92-1.5,7.38-4.5,7.38-1.32,0-2.7-.45-4.14-1.35-1.44-.9-3.36-2.49-5.76-4.77l-64.08-57.42v56.16c0,1.68-.39,2.91-1.17,3.69s-2.07,1.17-3.87,1.17h-24.3c-1.68,0-2.91-.39-3.69-1.17-.78-.78-1.17-2.01-1.17-3.69v-116.28c0-4.92,1.5-7.38,4.5-7.38Z"/>
    <path class="cls-1" d="M1425.05,367.86c.96,0,2.16,.54,3.6,1.62,4.44,3.24,9.3,5.85,14.58,7.83,5.28,1.98,10.56,2.97,15.84,2.97s9.27-.81,11.97-2.43c2.7-1.62,4.05-3.81,4.05-6.57,0-1.92-.66-3.54-1.98-4.86-1.32-1.32-3.45-2.49-6.39-3.51-2.94-1.02-7.29-2.25-13.05-3.69-8.88-2.16-16.2-4.83-21.96-8.01-5.76-3.18-10.17-7.29-13.23-12.33-3.06-5.04-4.59-11.22-4.59-18.54,0-8.52,2.07-15.87,6.21-22.05,4.14-6.18,9.87-10.86,17.19-14.04,7.32-3.18,15.72-4.77,25.2-4.77,17.04,0,32.16,5.34,45.36,16.02,1.44,1.08,2.16,2.34,2.16,3.78,0,1.2-.42,2.4-1.26,3.6l-10.8,16.56c-1.08,1.56-2.22,2.34-3.42,2.34s-2.34-.48-3.42-1.44c-9.72-7.08-19.14-10.62-28.26-10.62-4.32,0-7.68,.81-10.08,2.43-2.4,1.62-3.6,3.75-3.6,6.39,0,2.04,.66,3.72,1.98,5.04,1.32,1.32,3.3,2.43,5.94,3.33,2.64,.9,6.6,2.01,11.88,3.33,9.48,2.28,17.22,5.07,23.22,8.37,6,3.3,10.53,7.44,13.59,12.42,3.06,4.98,4.59,11.01,4.59,18.09,0,8.52-2.1,15.9-6.3,22.14-4.2,6.24-10.14,11.01-17.82,14.31-7.68,3.3-16.62,4.95-26.82,4.95-9.24,0-17.82-1.41-25.74-4.23s-15-6.69-21.24-11.61c-.96-.72-1.68-1.41-2.16-2.07-.48-.66-.72-1.41-.72-2.25,0-1.2,.54-2.58,1.62-4.14l10.26-15.66c1.08-1.8,2.28-2.7,3.6-2.7Z"/>
    <path class="cls-1" d="M1530.26,283.17c.78-.78,2.01-1.17,3.69-1.17h24.3c1.8,0,3.09,.39,3.87,1.17,.78,.78,1.17,2.01,1.17,3.69v87.12c0,1.08,.18,1.83,.54,2.25,.36,.42,1.14,.63,2.34,.63h44.64c1.68,0,2.91,.39,3.69,1.17,.78,.78,1.17,2.01,1.17,3.69v21.42c0,1.68-.39,2.91-1.17,3.69-.78,.78-2.01,1.17-3.69,1.17h-76.86c-1.68,0-2.91-.39-3.69-1.17-.78-.78-1.17-2.01-1.17-3.69v-116.28c0-1.68,.39-2.91,1.17-3.69Z"/>
    <path class="cls-1" d="M1689.11,281.19c1.44-1.38,3.12-2.07,5.04-2.07,1.8,0,3.42,.69,4.86,2.07,1.44,1.38,3.06,3.81,4.86,7.29l57.06,113.58c.72,1.2,1.08,2.28,1.08,3.24,0,1.8-1.38,2.7-4.14,2.7h-25.56c-2.4,0-4.08-.3-5.04-.9-.96-.6-1.86-1.86-2.7-3.78l-6.3-13.14c-.48-.96-.93-1.59-1.35-1.89-.42-.3-1.11-.45-2.07-.45h-42.66c-.96,0-1.65,.15-2.07,.45-.42,.3-.87,.93-1.35,1.89l-6.12,13.14c-.84,1.92-1.77,3.18-2.79,3.78-1.02,.6-2.61,.9-4.77,.9h-24.66c-2.76,0-4.14-.9-4.14-2.7,0-1.08,.3-2.16,.9-3.24l57.06-113.58c1.8-3.48,3.42-5.91,4.86-7.29Zm16.02,78.39c0-.48-.18-.96-.54-1.44l-11.16-23.58-10.98,23.58c-.36,.48-.54,.96-.54,1.44,0,.84,.66,1.26,1.98,1.26h19.26c1.32,0,1.98-.42,1.98-1.26Z"/>
    <path class="cls-1" d="M1798.1,313.77c-.42-.42-1.17-.63-2.25-.63h-27.18c-3.24,0-4.86-1.62-4.86-4.86v-21.42c0-3.24,1.62-4.86,4.86-4.86h94.32c1.68,0,2.91,.39,3.69,1.17,.78,.78,1.17,2.01,1.17,3.69v21.42c0,1.68-.39,2.91-1.17,3.69s-2.01,1.17-3.69,1.17h-27.18c-1.08,0-1.83,.21-2.25,.63s-.63,1.17-.63,2.25v87.12c0,1.68-.39,2.91-1.17,3.69-.78,.78-2.01,1.17-3.69,1.17h-24.48c-1.68,0-2.91-.39-3.69-1.17-.78-.78-1.17-2.01-1.17-3.69v-87.12c0-1.08-.21-1.83-.63-2.25Z"/>
    <path class="cls-1" d="M1884.32,283.17c.78-.78,2.01-1.17,3.69-1.17h76.86c3.36,0,5.04,1.62,5.04,4.86v19.98c0,1.8-.39,3.06-1.17,3.78-.78,.72-2.07,1.08-3.87,1.08h-44.64c-1.2,0-1.98,.21-2.34,.63-.36,.42-.54,1.17-.54,2.25v12.6c0,1.08,.18,1.8,.54,2.16s1.14,.54,2.34,.54h38.7c1.68,0,2.91,.42,3.69,1.26,.78,.84,1.17,2.1,1.17,3.78v19.62c0,1.68-.39,2.91-1.17,3.69-.78,.78-2.01,1.17-3.69,1.17h-38.7c-1.2,0-1.98,.21-2.34,.63-.36,.42-.54,1.17-.54,2.25v13.14c0,1.08,.18,1.83,.54,2.25,.36,.42,1.14,.63,2.34,.63h44.82c1.8,0,3.09,.36,3.87,1.08,.78,.72,1.17,1.98,1.17,3.78v19.98c0,3.24-1.68,4.86-5.04,4.86h-77.04c-1.68,0-2.91-.39-3.69-1.17-.78-.78-1.17-2.01-1.17-3.69v-116.28c0-1.68,.39-2.91,1.17-3.69Z"/>
    <path class="cls-1" d="M1991.59,384.33c1.62-2.58,3.84-4.62,6.66-6.12,2.82-1.5,6.03-2.25,9.63-2.25s6.99,.75,9.81,2.25c2.82,1.5,5.01,3.54,6.57,6.12,1.56,2.58,2.34,5.55,2.34,8.91s-.78,6.18-2.34,8.82c-1.56,2.64-3.75,4.68-6.57,6.12-2.82,1.44-6.09,2.16-9.81,2.16s-6.81-.72-9.63-2.16c-2.82-1.44-5.04-3.48-6.66-6.12-1.62-2.64-2.43-5.58-2.43-8.82s.81-6.33,2.43-8.91Z"/>
    <path class="cls-1" d="M2029.12,414.84c.48-.6,1.32-.9,2.52-.9,.96,0,2.25,.09,3.87,.27,1.62,.18,2.97,.27,4.05,.27,4.08,0,7.23-1.44,9.45-4.32,2.22-2.88,3.33-7.08,3.33-12.6v-110.7c0-1.68,.39-2.91,1.17-3.69,.78-.78,2.01-1.17,3.69-1.17h24.48c1.68,0,2.91,.39,3.69,1.17,.78,.78,1.17,2.01,1.17,3.69v112.68c0,14.4-3.3,25.56-9.9,33.48-6.6,7.92-16.98,11.88-31.14,11.88-6.72,0-11.94-.48-15.66-1.44-1.68-.48-2.79-1.11-3.33-1.89-.54-.78-.75-2.01-.63-3.69l2.34-19.8c.12-1.56,.42-2.64,.9-3.24Z"/>
    <path class="cls-1" d="M2116.42,367.86c.96,0,2.16,.54,3.6,1.62,4.44,3.24,9.3,5.85,14.58,7.83,5.28,1.98,10.56,2.97,15.84,2.97s9.27-.81,11.97-2.43c2.7-1.62,4.05-3.81,4.05-6.57,0-1.92-.66-3.54-1.98-4.86-1.32-1.32-3.45-2.49-6.39-3.51-2.94-1.02-7.29-2.25-13.05-3.69-8.88-2.16-16.2-4.83-21.96-8.01-5.76-3.18-10.17-7.29-13.23-12.33-3.06-5.04-4.59-11.22-4.59-18.54,0-8.52,2.07-15.87,6.21-22.05,4.14-6.18,9.87-10.86,17.19-14.04,7.32-3.18,15.72-4.77,25.2-4.77,17.04,0,32.16,5.34,45.36,16.02,1.44,1.08,2.16,2.34,2.16,3.78,0,1.2-.42,2.4-1.26,3.6l-10.8,16.56c-1.08,1.56-2.22,2.34-3.42,2.34s-2.34-.48-3.42-1.44c-9.72-7.08-19.14-10.62-28.26-10.62-4.32,0-7.68,.81-10.08,2.43-2.4,1.62-3.6,3.75-3.6,6.39,0,2.04,.66,3.72,1.98,5.04,1.32,1.32,3.3,2.43,5.94,3.33,2.64,.9,6.6,2.01,11.88,3.33,9.48,2.28,17.22,5.07,23.22,8.37,6,3.3,10.53,7.44,13.59,12.42,3.06,4.98,4.59,11.01,4.59,18.09,0,8.52-2.1,15.9-6.3,22.14-4.2,6.24-10.14,11.01-17.82,14.31-7.68,3.3-16.62,4.95-26.82,4.95-9.24,0-17.82-1.41-25.74-4.23s-15-6.69-21.24-11.61c-.96-.72-1.68-1.41-2.16-2.07-.48-.66-.72-1.41-.72-2.25,0-1.2,.54-2.58,1.62-4.14l10.26-15.66c1.08-1.8,2.28-2.7,3.6-2.7Z"/>
    <path class="cls-2" d="M905.36,469.45c.3-.3,.78-.46,1.43-.46h29.89c1.31,0,1.96,.63,1.96,1.89v7.77c0,.7-.15,1.19-.46,1.47s-.8,.42-1.5,.42h-17.36c-.47,0-.77,.08-.91,.25-.14,.16-.21,.46-.21,.88v4.9c0,.42,.07,.7,.21,.84s.44,.21,.91,.21h15.05c.65,0,1.13,.16,1.43,.49,.3,.33,.46,.82,.46,1.47v7.63c0,.65-.15,1.13-.46,1.43-.3,.3-.78,.46-1.43,.46h-15.05c-.47,0-.77,.08-.91,.25-.14,.16-.21,.46-.21,.88v5.11c0,.42,.07,.71,.21,.88,.14,.16,.44,.25,.91,.25h17.43c.7,0,1.2,.14,1.5,.42,.3,.28,.46,.77,.46,1.47v7.77c0,1.26-.65,1.89-1.96,1.89h-29.96c-.65,0-1.13-.15-1.43-.46-.3-.3-.46-.78-.46-1.43v-45.22c0-.65,.15-1.13,.46-1.43Z"/>
    <path class="cls-2" d="M966.85,468.68c.56-.54,1.21-.8,1.96-.8,.7,0,1.33,.27,1.89,.8,.56,.54,1.19,1.48,1.89,2.83l22.19,44.17c.28,.47,.42,.89,.42,1.26,0,.7-.54,1.05-1.61,1.05h-9.94c-.93,0-1.59-.12-1.96-.35-.37-.23-.72-.72-1.05-1.47l-2.45-5.11c-.19-.37-.36-.62-.53-.74-.16-.12-.43-.17-.8-.17h-16.59c-.37,0-.64,.06-.81,.17-.16,.12-.34,.36-.52,.74l-2.38,5.11c-.33,.75-.69,1.24-1.08,1.47-.4,.23-1.02,.35-1.86,.35h-9.59c-1.07,0-1.61-.35-1.61-1.05,0-.42,.12-.84,.35-1.26l22.19-44.17c.7-1.35,1.33-2.3,1.89-2.83Zm6.23,30.49c0-.19-.07-.37-.21-.56l-4.34-9.17-4.27,9.17c-.14,.19-.21,.37-.21,.56,0,.33,.26,.49,.77,.49h7.49c.51,0,.77-.16,.77-.49Z"/>
    <path class="cls-2" d="M1001.85,502.39c.37,0,.84,.21,1.4,.63,1.73,1.26,3.62,2.28,5.67,3.05,2.05,.77,4.11,1.15,6.16,1.15s3.6-.31,4.65-.94c1.05-.63,1.58-1.48,1.58-2.56,0-.75-.26-1.38-.77-1.89-.51-.51-1.34-.97-2.49-1.37-1.14-.4-2.83-.88-5.08-1.43-3.45-.84-6.3-1.88-8.54-3.12-2.24-1.24-3.96-2.83-5.14-4.79-1.19-1.96-1.79-4.36-1.79-7.21,0-3.31,.8-6.17,2.42-8.58,1.61-2.4,3.84-4.22,6.68-5.46,2.85-1.24,6.11-1.86,9.8-1.86,6.63,0,12.51,2.08,17.64,6.23,.56,.42,.84,.91,.84,1.47,0,.47-.16,.93-.49,1.4l-4.2,6.44c-.42,.61-.86,.91-1.33,.91s-.91-.19-1.33-.56c-3.78-2.75-7.44-4.13-10.99-4.13-1.68,0-2.99,.31-3.92,.94-.93,.63-1.4,1.46-1.4,2.49,0,.79,.26,1.45,.77,1.96,.51,.51,1.28,.95,2.31,1.29,1.03,.35,2.57,.78,4.62,1.29,3.69,.89,6.7,1.97,9.03,3.25,2.33,1.28,4.09,2.89,5.28,4.83,1.19,1.94,1.79,4.28,1.79,7.04,0,3.31-.82,6.18-2.45,8.61-1.63,2.43-3.94,4.28-6.93,5.56-2.99,1.28-6.46,1.93-10.43,1.93-3.59,0-6.93-.55-10.01-1.65s-5.83-2.6-8.26-4.51c-.37-.28-.65-.55-.84-.81-.19-.26-.28-.55-.28-.88,0-.47,.21-1,.63-1.61l3.99-6.09c.42-.7,.89-1.05,1.4-1.05Z"/>
    <path class="cls-2" d="M1038.88,471.1c-.28-.42-.42-.79-.42-1.12s.13-.57,.38-.74c.26-.16,.64-.25,1.16-.25h10.5c.93,0,1.62,.13,2.06,.38,.44,.26,.9,.81,1.37,1.65l9.17,16.38,9.17-16.38c.47-.84,.92-1.39,1.37-1.65,.44-.26,1.13-.38,2.06-.38h10.15c.47,0,.83,.08,1.08,.25,.26,.16,.38,.41,.38,.74s-.14,.7-.42,1.12l-17.22,28.84v16.17c0,.65-.15,1.13-.46,1.43s-.78,.46-1.43,.46h-9.52c-.65,0-1.13-.15-1.43-.46-.3-.3-.46-.78-.46-1.43v-15.82l-17.5-29.19Z"/>
    <path class="cls-2" d="M1120.6,481.35c-.16-.16-.46-.25-.88-.25h-10.57c-1.26,0-1.89-.63-1.89-1.89v-8.33c0-1.26,.63-1.89,1.89-1.89h36.68c.65,0,1.13,.15,1.43,.46,.3,.3,.46,.78,.46,1.43v8.33c0,.65-.15,1.13-.46,1.44s-.78,.46-1.43,.46h-10.57c-.42,0-.71,.08-.88,.25s-.25,.45-.25,.88v33.88c0,.65-.15,1.13-.46,1.43-.3,.3-.78,.46-1.43,.46h-9.52c-.65,0-1.13-.15-1.43-.46-.3-.3-.46-.78-.46-1.43v-33.88c0-.42-.08-.71-.25-.88Z"/>
    <path class="cls-2" d="M1154.13,469.45c.3-.3,.78-.46,1.43-.46h17.64c7,0,12.3,1.37,15.89,4.09,3.59,2.73,5.39,6.8,5.39,12.21,0,3.31-.72,6.15-2.17,8.51-1.45,2.36-3.48,4.23-6.09,5.63l10.71,16.31c.28,.42,.42,.82,.42,1.19,0,.33-.14,.58-.42,.77-.28,.19-.68,.28-1.19,.28h-10.5c-.93,0-1.67-.16-2.21-.49-.54-.33-1.06-.89-1.57-1.68l-7.56-12.39c-.23-.37-.48-.63-.74-.77s-.62-.21-1.08-.21h-3.99c-.47,0-.77,.07-.91,.21-.14,.14-.21,.44-.21,.91v12.53c0,.65-.15,1.13-.46,1.43s-.8,.46-1.5,.46h-9.45c-.65,0-1.13-.15-1.43-.46-.3-.3-.46-.78-.46-1.43v-45.22c0-.65,.15-1.13,.46-1.43Zm24.64,20.65c1.38-.91,2.06-2.32,2.06-4.24s-.69-3.28-2.06-4.09c-1.38-.82-3.49-1.23-6.33-1.23h-4.34c-.47,0-.77,.08-.91,.25-.14,.16-.21,.46-.21,.88v8.68c0,.42,.07,.71,.21,.88,.14,.16,.44,.25,.91,.25h4.34c2.85,0,4.96-.46,6.33-1.36Z"/>
    <path class="cls-2" d="M1221.79,468.68c.56-.54,1.21-.8,1.96-.8,.7,0,1.33,.27,1.89,.8,.56,.54,1.19,1.48,1.89,2.83l22.19,44.17c.28,.47,.42,.89,.42,1.26,0,.7-.54,1.05-1.61,1.05h-9.94c-.93,0-1.59-.12-1.96-.35-.37-.23-.72-.72-1.05-1.47l-2.45-5.11c-.19-.37-.36-.62-.53-.74-.16-.12-.43-.17-.8-.17h-16.59c-.37,0-.64,.06-.81,.17-.16,.12-.34,.36-.52,.74l-2.38,5.11c-.33,.75-.69,1.24-1.08,1.47-.4,.23-1.02,.35-1.86,.35h-9.59c-1.07,0-1.61-.35-1.61-1.05,0-.42,.12-.84,.35-1.26l22.19-44.17c.7-1.35,1.33-2.3,1.89-2.83Zm6.23,30.49c0-.19-.07-.37-.21-.56l-4.34-9.17-4.27,9.17c-.14,.19-.21,.37-.21,.56,0,.33,.26,.49,.77,.49h7.49c.51,0,.77-.16,.77-.49Z"/>
    <path class="cls-2" d="M1256.43,468.02c.47,0,.99,.19,1.57,.56,.58,.37,1.34,.98,2.28,1.82l24.92,22.33v-21.84c0-.65,.15-1.13,.46-1.43s.78-.46,1.43-.46h9.52c1.26,0,1.89,.63,1.89,1.89v45.22c0,1.91-.58,2.87-1.75,2.87-.51,0-1.05-.18-1.61-.53-.56-.35-1.31-.97-2.24-1.86l-24.92-22.33v21.84c0,.65-.15,1.13-.46,1.43s-.8,.46-1.5,.46h-9.45c-.65,0-1.13-.15-1.43-.46-.3-.3-.46-.78-.46-1.43v-45.22c0-1.91,.58-2.87,1.75-2.87Z"/>
    <path class="cls-2" d="M1310.4,502.39c.37,0,.84,.21,1.4,.63,1.73,1.26,3.62,2.28,5.67,3.05,2.05,.77,4.11,1.15,6.16,1.15s3.6-.31,4.65-.94c1.05-.63,1.58-1.48,1.58-2.56,0-.75-.26-1.38-.77-1.89-.51-.51-1.34-.97-2.49-1.37-1.14-.4-2.83-.88-5.08-1.43-3.45-.84-6.3-1.88-8.54-3.12-2.24-1.24-3.96-2.83-5.14-4.79-1.19-1.96-1.79-4.36-1.79-7.21,0-3.31,.8-6.17,2.42-8.58,1.61-2.4,3.84-4.22,6.68-5.46,2.85-1.24,6.11-1.86,9.8-1.86,6.63,0,12.51,2.08,17.64,6.23,.56,.42,.84,.91,.84,1.47,0,.47-.16,.93-.49,1.4l-4.2,6.44c-.42,.61-.86,.91-1.33,.91s-.91-.19-1.33-.56c-3.78-2.75-7.44-4.13-10.99-4.13-1.68,0-2.99,.31-3.92,.94-.93,.63-1.4,1.46-1.4,2.49,0,.79,.26,1.45,.77,1.96,.51,.51,1.28,.95,2.31,1.29,1.03,.35,2.57,.78,4.62,1.29,3.69,.89,6.7,1.97,9.03,3.25,2.33,1.28,4.09,2.89,5.28,4.83,1.19,1.94,1.79,4.28,1.79,7.04,0,3.31-.82,6.18-2.45,8.61-1.63,2.43-3.94,4.28-6.93,5.56-2.99,1.28-6.46,1.93-10.43,1.93-3.59,0-6.93-.55-10.01-1.65s-5.83-2.6-8.26-4.51c-.37-.28-.65-.55-.84-.81-.19-.26-.28-.55-.28-.88,0-.47,.21-1,.63-1.61l3.99-6.09c.42-.7,.89-1.05,1.4-1.05Z"/>
    <path class="cls-2" d="M1351.32,469.45c.3-.3,.78-.46,1.43-.46h9.45c.7,0,1.2,.15,1.5,.46,.3,.3,.46,.78,.46,1.43v33.88c0,.42,.07,.71,.21,.88,.14,.16,.44,.25,.91,.25h17.36c.65,0,1.13,.15,1.44,.46,.3,.3,.46,.78,.46,1.44v8.33c0,.65-.15,1.13-.46,1.43-.3,.3-.78,.46-1.44,.46h-29.89c-.65,0-1.13-.15-1.43-.46-.3-.3-.46-.78-.46-1.43v-45.22c0-.65,.15-1.13,.46-1.43Z"/>
    <path class="cls-2" d="M1413.09,468.68c.56-.54,1.21-.8,1.96-.8,.7,0,1.33,.27,1.89,.8,.56,.54,1.19,1.48,1.89,2.83l22.19,44.17c.28,.47,.42,.89,.42,1.26,0,.7-.54,1.05-1.61,1.05h-9.94c-.93,0-1.59-.12-1.96-.35-.37-.23-.72-.72-1.05-1.47l-2.45-5.11c-.19-.37-.36-.62-.53-.74-.16-.12-.43-.17-.8-.17h-16.59c-.37,0-.64,.06-.81,.17-.16,.12-.34,.36-.52,.74l-2.38,5.11c-.33,.75-.69,1.24-1.08,1.47-.4,.23-1.02,.35-1.86,.35h-9.59c-1.07,0-1.61-.35-1.61-1.05,0-.42,.12-.84,.35-1.26l22.19-44.17c.7-1.35,1.33-2.3,1.89-2.83Zm6.23,30.49c0-.19-.07-.37-.21-.56l-4.34-9.17-4.27,9.17c-.14,.19-.21,.37-.21,.56,0,.33,.26,.49,.77,.49h7.49c.51,0,.77-.16,.77-.49Z"/>
    <path class="cls-2" d="M1455.48,481.35c-.16-.16-.46-.25-.88-.25h-10.57c-1.26,0-1.89-.63-1.89-1.89v-8.33c0-1.26,.63-1.89,1.89-1.89h36.68c.65,0,1.13,.15,1.43,.46,.3,.3,.46,.78,.46,1.43v8.33c0,.65-.15,1.13-.46,1.44s-.78,.46-1.43,.46h-10.57c-.42,0-.71,.08-.88,.25s-.25,.45-.25,.88v33.88c0,.65-.15,1.13-.46,1.43-.3,.3-.78,.46-1.43,.46h-9.52c-.65,0-1.13-.15-1.43-.46-.3-.3-.46-.78-.46-1.43v-33.88c0-.42-.08-.71-.25-.88Z"/>
    <path class="cls-2" d="M1489,469.45c.3-.3,.78-.46,1.43-.46h29.89c1.31,0,1.96,.63,1.96,1.89v7.77c0,.7-.15,1.19-.46,1.47s-.8,.42-1.5,.42h-17.36c-.47,0-.77,.08-.91,.25-.14,.16-.21,.46-.21,.88v4.9c0,.42,.07,.7,.21,.84s.44,.21,.91,.21h15.05c.65,0,1.13,.16,1.43,.49,.3,.33,.46,.82,.46,1.47v7.63c0,.65-.15,1.13-.46,1.43-.3,.3-.78,.46-1.43,.46h-15.05c-.47,0-.77,.08-.91,.25-.14,.16-.21,.46-.21,.88v5.11c0,.42,.07,.71,.21,.88,.14,.16,.44,.25,.91,.25h17.43c.7,0,1.2,.14,1.5,.42,.3,.28,.46,.77,.46,1.47v7.77c0,1.26-.65,1.89-1.96,1.89h-29.96c-.65,0-1.13-.15-1.43-.46-.3-.3-.46-.78-.46-1.43v-45.22c0-.65,.15-1.13,.46-1.43Z"/>
    <path class="cls-2" d="M1544.62,471.1c-.28-.42-.42-.79-.42-1.12s.13-.57,.38-.74c.26-.16,.64-.25,1.16-.25h10.5c.93,0,1.62,.13,2.06,.38,.44,.26,.9,.81,1.37,1.65l9.17,16.38,9.17-16.38c.47-.84,.92-1.39,1.37-1.65,.44-.26,1.13-.38,2.06-.38h10.15c.47,0,.83,.08,1.08,.25,.26,.16,.38,.41,.38,.74s-.14,.7-.42,1.12l-17.22,28.84v16.17c0,.65-.15,1.13-.46,1.43s-.78,.46-1.43,.46h-9.52c-.65,0-1.13-.15-1.43-.46-.3-.3-.46-.78-.46-1.43v-15.82l-17.5-29.19Z"/>
    <path class="cls-2" d="M1597.5,480.41c2.26-3.87,5.4-6.91,9.42-9.1,4.01-2.19,8.54-3.29,13.58-3.29s9.64,1.09,13.65,3.26c4.01,2.17,7.15,5.19,9.42,9.06,2.26,3.87,3.39,8.26,3.39,13.16s-1.13,9.34-3.39,13.2c-2.26,3.85-5.41,6.86-9.45,9.03-4.04,2.17-8.62,3.26-13.75,3.26s-9.49-1.07-13.48-3.22c-3.99-2.15-7.12-5.14-9.38-9-2.26-3.85-3.39-8.22-3.39-13.12s1.13-9.36,3.39-13.23Zm29.44,24.75c1.96-1.1,3.5-2.65,4.62-4.66,1.12-2.01,1.68-4.32,1.68-6.93s-.56-4.99-1.68-7c-1.12-2.01-2.65-3.56-4.58-4.66-1.94-1.1-4.1-1.65-6.48-1.65s-4.6,.55-6.51,1.65c-1.91,1.1-3.42,2.65-4.51,4.66-1.1,2.01-1.65,4.34-1.65,7s.55,4.92,1.65,6.93c1.1,2.01,2.6,3.56,4.51,4.66,1.91,1.1,4.06,1.64,6.44,1.64s4.55-.55,6.51-1.64Z"/>
    <path class="cls-2" d="M1654.41,469.45c.3-.3,.78-.46,1.44-.46h9.45c.7,0,1.2,.15,1.5,.46,.3,.3,.46,.78,.46,1.43v24.92c0,3.55,.78,6.27,2.35,8.16,1.56,1.89,3.86,2.83,6.89,2.83s5.34-.94,6.93-2.83c1.59-1.89,2.38-4.61,2.38-8.16v-24.92c0-.65,.15-1.13,.46-1.43,.3-.3,.78-.46,1.43-.46h9.45c.7,0,1.2,.15,1.5,.46,.3,.3,.46,.78,.46,1.43v25.9c0,4.85-.96,8.94-2.87,12.25-1.91,3.31-4.61,5.8-8.08,7.46-3.48,1.66-7.5,2.49-12.08,2.49s-8.31-.81-11.62-2.42c-3.31-1.61-5.89-4.06-7.73-7.35-1.84-3.29-2.77-7.38-2.77-12.29v-26.04c0-.65,.15-1.13,.46-1.43Z"/>
    <path class="cls-2" d="M1709.01,469.45c.3-.3,.78-.46,1.43-.46h17.64c7,0,12.3,1.37,15.89,4.09,3.59,2.73,5.39,6.8,5.39,12.21,0,3.31-.72,6.15-2.17,8.51-1.45,2.36-3.48,4.23-6.09,5.63l10.71,16.31c.28,.42,.42,.82,.42,1.19,0,.33-.14,.58-.42,.77-.28,.19-.68,.28-1.19,.28h-10.5c-.93,0-1.67-.16-2.21-.49-.54-.33-1.06-.89-1.57-1.68l-7.56-12.39c-.23-.37-.48-.63-.74-.77s-.62-.21-1.08-.21h-3.99c-.47,0-.77,.07-.91,.21-.14,.14-.21,.44-.21,.91v12.53c0,.65-.15,1.13-.46,1.43s-.8,.46-1.5,.46h-9.45c-.65,0-1.13-.15-1.43-.46-.3-.3-.46-.78-.46-1.43v-45.22c0-.65,.15-1.13,.46-1.43Zm24.64,20.65c1.38-.91,2.06-2.32,2.06-4.24s-.69-3.28-2.06-4.09c-1.38-.82-3.49-1.23-6.33-1.23h-4.34c-.47,0-.77,.08-.91,.25-.14,.16-.21,.46-.21,.88v8.68c0,.42,.07,.71,.21,.88,.14,.16,.44,.25,.91,.25h4.34c2.85,0,4.96-.46,6.33-1.36Z"/>
    <path class="cls-2" d="M1777.12,469.45c.3-.3,.78-.46,1.43-.46h9.45c.7,0,1.2,.15,1.5,.46,.3,.3,.46,.78,.46,1.43v14.98c0,.42,.07,.71,.21,.88,.14,.16,.44,.25,.91,.25h14.56c.42,0,.71-.08,.88-.25s.25-.46,.25-.88v-14.98c0-1.26,.65-1.89,1.96-1.89h9.45c1.31,0,1.96,.63,1.96,1.89v45.22c0,1.26-.65,1.89-1.96,1.89h-9.45c-1.31,0-1.96-.63-1.96-1.89v-15.89c0-.42-.08-.71-.25-.88-.16-.16-.46-.25-.88-.25h-14.56c-.47,0-.77,.08-.91,.25-.14,.16-.21,.46-.21,.88v15.89c0,.65-.15,1.13-.46,1.43s-.8,.46-1.5,.46h-9.45c-.65,0-1.13-.15-1.43-.46-.3-.3-.46-.78-.46-1.43v-45.22c0-.65,.15-1.13,.46-1.43Z"/>
    <path class="cls-2" d="M1839.42,481.35c-.16-.16-.46-.25-.88-.25h-10.57c-1.26,0-1.89-.63-1.89-1.89v-8.33c0-1.26,.63-1.89,1.89-1.89h36.68c.65,0,1.13,.15,1.43,.46,.3,.3,.46,.78,.46,1.43v8.33c0,.65-.15,1.13-.46,1.44s-.78,.46-1.43,.46h-10.57c-.42,0-.71,.08-.88,.25s-.25,.45-.25,.88v33.88c0,.65-.15,1.13-.46,1.43-.3,.3-.78,.46-1.43,.46h-9.52c-.65,0-1.13-.15-1.43-.46-.3-.3-.46-.78-.46-1.43v-33.88c0-.42-.08-.71-.25-.88Z"/>
    <path class="cls-2" d="M1874.25,468.23c.42,0,.86,.16,1.33,.49,.47,.33,1.05,.86,1.75,1.61l20.3,21.49,20.23-21.49c.79-.79,1.4-1.34,1.82-1.65,.42-.3,.84-.45,1.26-.45,1.21,0,1.82,.91,1.82,2.73v45.15c0,1.26-.65,1.89-1.96,1.89h-9.45c-1.31,0-1.96-.63-1.96-1.89v-19.39l-9.17,10.15c-.65,.7-1.17,1.18-1.54,1.43-.37,.26-.75,.39-1.12,.39s-.75-.13-1.12-.39c-.37-.26-.86-.73-1.47-1.43l-9.17-10.15v19.39c0,.65-.15,1.13-.46,1.43s-.8,.46-1.5,.46h-9.45c-.65,0-1.13-.15-1.43-.46-.3-.3-.46-.78-.46-1.43v-45.15c0-1.82,.58-2.73,1.75-2.73Z"/>
    <path class="cls-2" d="M1932.94,469.45c.3-.3,.78-.46,1.43-.46h9.45c.7,0,1.2,.15,1.5,.46,.3,.3,.46,.78,.46,1.43v33.88c0,.42,.07,.71,.21,.88,.14,.16,.44,.25,.91,.25h17.36c.65,0,1.13,.15,1.44,.46,.3,.3,.46,.78,.46,1.44v8.33c0,.65-.15,1.13-.46,1.43-.3,.3-.78,.46-1.44,.46h-29.89c-.65,0-1.13-.15-1.43-.46-.3-.3-.46-.78-.46-1.43v-45.22c0-.65,.15-1.13,.46-1.43Z"/>
    <path class="cls-2" d="M1992.37,469.45c.3-.3,.78-.46,1.43-.46h17.08c7.33,0,12.82,1.47,16.49,4.41,3.66,2.94,5.49,7.4,5.49,13.37s-1.9,10.5-5.71,13.58-9.34,4.62-16.62,4.62h-4.2c-.42,0-.71,.07-.88,.21-.16,.14-.25,.42-.25,.84v10.08c0,.65-.15,1.13-.46,1.43s-.8,.46-1.5,.46h-9.45c-.65,0-1.13-.15-1.43-.46-.3-.3-.46-.78-.46-1.43v-45.22c0-.65,.15-1.13,.46-1.43Zm26.84,17.39c0-2.29-.76-3.91-2.28-4.86-1.52-.96-3.84-1.44-6.96-1.44h-3.64c-.47,0-.77,.08-.91,.25-.14,.16-.21,.46-.21,.88v10.64c0,.42,.07,.71,.21,.88,.14,.16,.44,.25,.91,.25h3.64c6.16,0,9.24-2.19,9.24-6.58Z"/>
    <path class="cls-2" d="M2055.54,468.68c.56-.54,1.21-.8,1.96-.8,.7,0,1.33,.27,1.89,.8,.56,.54,1.19,1.48,1.89,2.83l22.19,44.17c.28,.47,.42,.89,.42,1.26,0,.7-.54,1.05-1.61,1.05h-9.94c-.93,0-1.59-.12-1.96-.35-.37-.23-.72-.72-1.05-1.47l-2.45-5.11c-.19-.37-.36-.62-.53-.74-.16-.12-.43-.17-.8-.17h-16.59c-.37,0-.64,.06-.81,.17-.16,.12-.34,.36-.52,.74l-2.38,5.11c-.33,.75-.69,1.24-1.08,1.47-.4,.23-1.02,.35-1.86,.35h-9.59c-1.07,0-1.61-.35-1.61-1.05,0-.42,.12-.84,.35-1.26l22.19-44.17c.7-1.35,1.33-2.3,1.89-2.83Zm6.23,30.49c0-.19-.07-.37-.21-.56l-4.34-9.17-4.27,9.17c-.14,.19-.21,.37-.21,.56,0,.33,.26,.49,.77,.49h7.49c.51,0,.77-.16,.77-.49Z"/>
    <path class="cls-2" d="M2120.61,493.5c.3-.33,.78-.49,1.43-.49h9.52c.65,0,1.13,.16,1.44,.49,.3,.33,.46,.82,.46,1.47v16.31c0,.75-.13,1.33-.38,1.75-.26,.42-.71,.82-1.37,1.19-3.08,1.54-6.22,2.72-9.42,3.54-3.2,.82-6.54,1.23-10.04,1.23-4.99,0-9.49-1.04-13.48-3.12-3.99-2.08-7.12-5-9.38-8.79s-3.39-8.14-3.39-13.09,1.14-9.66,3.43-13.58c2.29-3.92,5.47-6.96,9.55-9.13,4.08-2.17,8.72-3.26,13.9-3.26,3.45,0,6.75,.49,9.91,1.47,3.15,.98,5.98,2.33,8.5,4.06,.84,.56,1.26,1.14,1.26,1.75,0,.42-.19,.89-.56,1.4l-3.92,6.16c-.51,.79-1.05,1.19-1.61,1.19-.42,0-.89-.16-1.4-.49-1.87-1.07-3.78-1.89-5.74-2.45-1.96-.56-4.06-.84-6.3-.84-2.75,0-5.13,.57-7.14,1.72-2.01,1.14-3.54,2.73-4.58,4.76s-1.58,4.33-1.58,6.89,.54,4.87,1.61,6.9c1.07,2.03,2.58,3.6,4.51,4.72,1.94,1.12,4.14,1.68,6.62,1.68,2.66,0,4.85-.35,6.58-1.05,.42-.14,.71-.31,.88-.52,.16-.21,.25-.55,.25-1.02v-9.38c0-.65,.15-1.14,.46-1.47Z"/>
    <path class="cls-2" d="M2142.38,469.45c.3-.3,.78-.46,1.43-.46h29.89c1.31,0,1.96,.63,1.96,1.89v7.77c0,.7-.15,1.19-.46,1.47s-.8,.42-1.5,.42h-17.36c-.47,0-.77,.08-.91,.25-.14,.16-.21,.46-.21,.88v4.9c0,.42,.07,.7,.21,.84s.44,.21,.91,.21h15.05c.65,0,1.13,.16,1.43,.49,.3,.33,.46,.82,.46,1.47v7.63c0,.65-.15,1.13-.46,1.43-.3,.3-.78,.46-1.43,.46h-15.05c-.47,0-.77,.08-.91,.25-.14,.16-.21,.46-.21,.88v5.11c0,.42,.07,.71,.21,.88,.14,.16,.44,.25,.91,.25h17.43c.7,0,1.2,.14,1.5,.42,.3,.28,.46,.77,.46,1.47v7.77c0,1.26-.65,1.89-1.96,1.89h-29.96c-.65,0-1.13-.15-1.43-.46-.3-.3-.46-.78-.46-1.43v-45.22c0-.65,.15-1.13,.46-1.43Z"/>
    <path class="cls-2" d="M2185.67,502.39c.37,0,.84,.21,1.4,.63,1.73,1.26,3.62,2.28,5.67,3.05,2.05,.77,4.11,1.15,6.16,1.15s3.6-.31,4.65-.94c1.05-.63,1.58-1.48,1.58-2.56,0-.75-.26-1.38-.77-1.89-.51-.51-1.34-.97-2.49-1.37-1.14-.4-2.83-.88-5.08-1.43-3.45-.84-6.3-1.88-8.54-3.12-2.24-1.24-3.96-2.83-5.14-4.79-1.19-1.96-1.79-4.36-1.79-7.21,0-3.31,.8-6.17,2.42-8.58,1.61-2.4,3.84-4.22,6.68-5.46,2.85-1.24,6.11-1.86,9.8-1.86,6.63,0,12.51,2.08,17.64,6.23,.56,.42,.84,.91,.84,1.47,0,.47-.16,.93-.49,1.4l-4.2,6.44c-.42,.61-.86,.91-1.33,.91s-.91-.19-1.33-.56c-3.78-2.75-7.44-4.13-10.99-4.13-1.68,0-2.99,.31-3.92,.94-.93,.63-1.4,1.46-1.4,2.49,0,.79,.26,1.45,.77,1.96,.51,.51,1.28,.95,2.31,1.29,1.03,.35,2.57,.78,4.62,1.29,3.69,.89,6.7,1.97,9.03,3.25,2.33,1.28,4.09,2.89,5.28,4.83,1.19,1.94,1.79,4.28,1.79,7.04,0,3.31-.82,6.18-2.45,8.61-1.63,2.43-3.94,4.28-6.93,5.56-2.99,1.28-6.46,1.93-10.43,1.93-3.59,0-6.93-.55-10.01-1.65s-5.83-2.6-8.26-4.51c-.37-.28-.65-.55-.84-.81-.19-.26-.28-.55-.28-.88,0-.47,.21-1,.63-1.61l3.99-6.09c.42-.7,.89-1.05,1.4-1.05Z"/>
  </g>
</svg>